<svg xmlns="http://www.w3.org/2000/svg" viewBox="0 0 32 32" fill="#1d39c4">
<path d="M29.868 30.75h-27a.5.5 0 0 1 0-1h27a.5.5 0 0 1 0 1z"/>
<path d="m17.753 30.75-.037-.001a.502.502 0 0 1-.463-.535c.076-1.062.115-2.144.115-3.217 0-6.633-1.424-13.022-4.231-18.989a.616.616 0 0 1 .977-.711c5.968 5.633 9.254 13.252 9.254 21.454 0 .499-.012.994-.037 1.487-.013.274-.226.505-.524.474a.5.5 0 0 1-.474-.524c.023-.476.035-.955.035-1.437 0-7.223-2.639-13.979-7.473-19.239 2.306 5.543 3.473 11.414 3.473 17.486a46.1 46.1 0 0 1-.117 3.289.5.5 0 0 1-.498.463zM14.041 7.581v.001-.001z"/>
<path d="M16.368 30.667c-1.103 0-2-.897-2-2s.897-2 2-2 2 .897 2 2-.897 2-2 2zm0-3a1 1 0 1 0 0 2 1 1 0 0 0 0-2zm-3.021-14.186c-1.103 0-2-.897-2-2s.897-2 2-2 2 .897 2 2-.898 2-2 2zm0-3a1.001 1.001 0 0 0 0 2 1.001 1.001 0 0 0 0-2zm4.521 6.269h-1a.5.5 0 0 1 0-1h1a.5.5 0 0 1 0 1zm-1-2h-.827a.5.5 0 0 1 0-1h.827a.5.5 0 0 1 0 1zm1.379 4h-1.206a.5.5 0 0 1 0-1h1.206a.5.5 0 0 1 0 1zm.621 2h-1a.5.5 0 0 1 0-1h1a.5.5 0 0 1 0 1zm.485 2h-1.484a.5.5 0 0 1 0-1h1.484a.5.5 0 0 1 0 1zm.515 2h-2a.5.5 0 0 1 0-1h2a.5.5 0 0 1 0 1zm.141 2h-2.141a.5.5 0 0 1 0-1h2.141a.5.5 0 0 1 0 1z"/>
<path d="M19.868 28.75h-2a.5.5 0 0 1 0-1h2a.5.5 0 0 1 0 1zM5.522 20.031a.5.5 0 0 1-.497-.449 10.897 10.897 0 0 1 3.469-9.143 10.864 10.864 0 0 1 5.211-2.637.495.495 0 0 1 .52.222.497.497 0 0 1-.02.565l-3.867 5.247a.499.499 0 0 1-.402.204h-.838v1.317a.492.492 0 0 1-.098.296l-3.075 4.173a.496.496 0 0 1-.403.205zm7.025-10.876a9.847 9.847 0 0 0-3.377 2.023 9.9 9.9 0 0 0-3.196 6.897l2.124-2.881v-1.652a.5.5 0 0 1 .5-.5h1.085l2.864-3.887zm-3.949 6.203h.01-.01z"/>
<path d="M13.803 8.794a.498.498 0 0 1-.499-.537c.125-1.702.886-3.358 2.144-4.663 2.51-2.603 6.298-3.12 8.815-1.201a.496.496 0 0 1 .194.436.498.498 0 0 1-.26.401L21.02 4.951a.493.493 0 0 1-.357.046l-.652-.161-.136.549a.496.496 0 0 1-.247.32l-5.587 3.027a.48.48 0 0 1-.238.062zm6.96-6.537c-1.608 0-3.314.703-4.595 2.032-.856.888-1.449 1.958-1.718 3.085l4.507-2.442.202-.82a.497.497 0 0 1 .605-.366l.95.234 2.254-1.221a4.9 4.9 0 0 0-2.205-.502zm-1.373 3.01h.01-.01z"/>
<path d="M13.803 9.292a.5.5 0 0 1-.157-.025l-5.088-1.68a.497.497 0 0 1-.303-.28l-.447-1.055-1.267.537a.488.488 0 0 1-.353.014L1.975 5.411a.5.5 0 0 1-.17-.852C3.19 3.358 5.009 2.696 6.928 2.696c3.757 0 6.995 2.653 7.372 6.041a.499.499 0 0 1-.497.555zM9.087 6.708l4.064 1.342c-.698-2.497-3.274-4.354-6.224-4.354a6.912 6.912 0 0 0-3.729 1.066l3.126 1.033 1.554-.659a.508.508 0 0 1 .383-.003c.123.05.222.146.272.269l.554 1.306z"/>
<path d="M24.782 12.405a.517.517 0 0 1-.151-.023l-4.435-1.407a.502.502 0 0 1-.308-.278l-.34-.787-.974.421a.501.501 0 0 1-.35.018L13.65 8.898a.499.499 0 0 1-.169-.86c1.308-1.089 3.023-1.689 4.832-1.689 3.607 0 6.602 2.364 6.965 5.499a.499.499 0 0 1-.496.557zm-4.066-2.314 3.401 1.079c-.686-2.197-3.074-3.821-5.803-3.821-1.229 0-2.406.315-3.4.901l3.436 1.09 1.261-.545a.5.5 0 0 1 .657.26l.448 1.036z"/></svg>