<svg xmlns="http://www.w3.org/2000/svg" viewBox="0 0 32 32" >
<g data-name="calendar" fill="#595959">
<path d="M29,4H25V3a1,1,0,0,0-2,0V4H9V3A1,1,0,0,0,7,3V4H3A1,1,0,0,0,2,5v6a1,1,0,0,0,1,1H4V29a1,1,0,0,0,1,1H27a1,1,0,0,0,1-1V12h1a1,1,0,0,0,1-1V5A1,1,0,0,0,29,4ZM26,28H6V12H26Z"/>
<path d="M14 15H10a1 1 0 0 0 0 2h3v2H11a1 1 0 0 0 0 2h2v2H10a1 1 0 0 0 0 2h4a1 1 0 0 0 1-1V16A1 1 0 0 0 14 15zM22 23H21V16a1 1 0 0 0-1.45-.89l-2 1a1 1 0 0 0 .9 1.78l.55-.27V23H18a1 1 0 0 0 0 2h4a1 1 0 0 0 0-2z"/></g></svg>