<svg xmlns="http://www.w3.org/2000/svg" data-name="Layer 1" viewBox="0 0 1000 1000">
<path fill='#909090' d="M771.15,916H228.85A61,61,0,0,1,168,855.1V189.63a61,61,0,0,1,60.9-60.89H436.49a16,16,0,0,1,0,32H228.85A28.92,28.92,0,0,0,200,189.63V855.1a28.93,28.93,0,0,0,28.9,28.9h542.3a28.93,28.93,0,0,0,28.9-28.9V189.63a28.92,28.92,0,0,0-28.9-28.89H563.61a16,16,0,0,1,0-32H771.15a61,61,0,0,1,60.9,60.89V855.1A61,61,0,0,1,771.15,916Z"/>
<path fill='#909090' d="M765.32,848.7H234.68a16,16,0,0,1-16-16V212a16,16,0,0,1,16-16h202.6a16,16,0,0,1,0,32H250.68V816.7H749.32V228H562.5a16,16,0,0,1,0-32H765.32a16,16,0,0,1,16,16V832.7A16,16,0,0,1,765.32,848.7Z"/>
<path fill='#909090' d="M522.71 261.25H477.29a57 57 0 01-56.9-56.91V100a16 16 0 0116-16H563.61a16 16 0 0116 16V204.34A57 57 0 01522.71 261.25zM452.39 116v88.34a24.94 24.94 0 0024.9 24.91h45.42a24.94 24.94 0 0024.9-24.91V116zM552.45 419.37h-236a16 16 0 010-32h236a16 16 0 010 32zM633.51 521.75h-317a16 16 0 010-32h317a16 16 0 010 32zM683.51 612.63h-367a16 16 0 010-32h367a16 16 0 010 32z"/></svg>