<svg xmlns="http://www.w3.org/2000/svg" enable-background="new 0 0 64 64" viewBox="0 0 64 64">
<circle fill="#c41d7f" cx="12.9" cy="13.1" r="5"/>
<path fill="#c41d7f" d="M12.9 6.1c.6 0 1-.4 1-1v-2c0-.6-.4-1-1-1s-1 .4-1 1v2C11.9 5.6 12.3 6.1 12.9 6.1zM6.5 8.1c.2.2 1 .5 1.4 0 .4-.4.4-1 0-1.4L6.5 5.2c-.4-.4-1-.4-1.4 0s-.4 1 0 1.4L6.5 8.1zM5.9 13.1c0-.6-.4-1-1-1h-2c-.6 0-1 .4-1 1s.4 1 1 1h2C5.4 14.1 5.9 13.6 5.9 13.1zM6.5 18l-1.4 1.4c-.4.4-.4 1 0 1.4.5.5 1.2.2 1.4 0l1.4-1.4c.4-.4.4-1 0-1.4S6.8 17.7 6.5 18zM13.9 23.1v-2c0-.6-.4-1-1-1s-1 .4-1 1v2c0 .6.4 1 1 1S13.9 23.6 13.9 23.1zM20.7 20.9c.4-.4.4-1 0-1.4L19.3 18c-.4-.4-1-.4-1.4 0s-.4 1 0 1.4l1.4 1.4C19.4 21.1 20.1 21.4 20.7 20.9zM19.9 13.1c0 .6.4 1 1 1h2c.6 0 1-.4 1-1s-.4-1-1-1h-2C20.3 12.1 19.9 12.5 19.9 13.1zM19.3 8.1l1.4-1.4c.4-.4.4-1 0-1.4s-1-.4-1.4 0l-1.4 1.4c-.4.4-.4 1 0 1.4C18 8.3 18.6 8.5 19.3 8.1zM62.1 54.6c-1.7-.7-3.6-.6-5.1.3-2.5 1.4-5.4 1.4-7.7 0-1.8-1-4-1-5.7 0-2.4 1.4-5.4 1.4-7.7 0-1.8-1-4-1-5.7 0-1.2.7-4.5 1.8-7.7 0-1.8-1-4-1-5.7 0-2.4 1.4-5.4 1.4-7.7 0-1.6-.9-3.6-1-5.2-.3v5.9c2-.7 4.3-.4 6.2.7 1.7 1 3.9 1 5.7 0 3.4-1.9 6.5-.7 7.7 0 1.7 1 3.9 1 5.7 0 2.3-1.4 5.3-1.4 7.7 0 1.7 1 3.9 1 5.7 0 2.3-1.4 5.3-1.4 7.7 0 1.7 1 3.9 1 5.7 0 1.9-1.1 4.1-1.3 6.2-.7L62.1 54.6z"/>
<path fill="#c41d7f" d="M57,46.9c-2.5,1.4-5.4,1.4-7.7,0c-1.8-1-4-1-5.7,0c-2.4,1.4-5.4,1.4-7.7,0c-1.8-1-4-1-5.7,0c-1.2,0.7-4.5,1.9-7.7,0c-1.7-1-4-1-5.7,0c-2.4,1.4-5.4,1.4-7.7,0c-1.6-0.9-3.6-1-5.2-0.3v5.9c2-0.7,4.3-0.4,6.2,0.7c1.7,1,3.9,1,5.7,0c2.3-1.4,5.3-1.4,7.7,0c1.7,1,3.9,1,5.7,0c2.3-1.4,5.3-1.4,7.7,0c1.7,1,3.9,1,5.7,0c2.3-1.4,5.3-1.4,7.7,0c1.7,1,3.9,1,5.7,0c1.8-1.1,4-1.3,6.1-0.7L62,46.6C60.3,45.9,58.4,46,57,46.9z"/>
<path fill="#c41d7f" d="M3.9 44.5c2-.7 4.3-.4 6.2.7 1.7 1 3.9 1 5.7 0 2.3-1.4 5.3-1.4 7.7 0 1.7 1 3.9 1 5.7 0 2.3-1.4 5.3-1.4 7.7 0 1.7 1 3.9 1 5.7 0 2.3-1.4 5.3-1.4 7.7 0 1.7 1 3.9 1 5.7 0 1.8-1.1 4-1.3 6-.7l-.1-4.4h-58V44.5zM33.9 14.1h25.9C52 8.9 41.7 8.9 33.9 14.1z"/>
<polygon fill="#c41d7f" points="37.2 16.1 31.9 16.1 31.9 18.1 36.2 18.1"/>
<polygon fill="#c41d7f" points="53.2 16.1 40.5 16.1 41.5 18.1 52.2 18.1"/>
<polygon fill="#c41d7f" points="57.5 18.1 61.9 18.1 61.9 16.1 56.5 16.1"/>
<rect fill="#c41d7f" width="2" height="18" x="45.9" y="20.1"/>
<path fill="#c41d7f" d="M47.9 7.1c0-.5-.5-1-1-1s-1 .5-1 1v1.2c.7 0 1.3 0 2 0V7.1zM7.9 35.1c0 .6.4 1 1 1h3.6l-2 2h2.8l2-2h15.2l2 2h2.8l-2-2h2.1l4.3-6.4c.3-.5.2-1.1-.3-1.4C39 27.9 38.3 28 38 28.5l-3.7 5.6H8.9C8.3 34.1 7.9 34.5 7.9 35.1z"/></svg>