<svg xmlns="http://www.w3.org/2000/svg" display="none">
<defs>
	<symbol id="vk">

            <rect width="512" height="512" rx="15%" fill="#5281b8"/>
			<path d="M274 363c5-1 14-3 14-15 0 0-1-30 13-34s32 29 51 42c14 9 25 8 25 8l51-1s26-2 14-23c-1-2-9-15-39-42-31-30-26-25 11-76 23-31 33-50 30-57-4-7-20-6-20-6h-57c-6 0-9 1-12 6 0 0-9 25-21 45-25 43-35 45-40 42-9-5-7-24-7-37 0-45 7-61-13-65-13-2-59-4-73 3-7 4-11 11-8 12 3 0 12 1 17 7 8 13 9 75-2 81-15 11-53-62-62-86-2-6-5-7-12-9H79c-6 0-15 1-11 13 27 56 83 193 184 192z"/>

    </symbol>

    <symbol id="facebook" viewBox="0 0 56 56" > 
<g>
            <path style="fill:#3A559F;" d="M0,0v455.73h242.704V279.691h-59.33v-71.864h59.33v-60.353c0-43.893,35.582-79.475,79.475-79.475
	h62.025v64.622h-44.382c-13.947,0-25.254,11.307-25.254,25.254v49.953h68.521l-9.47,71.864h-59.051V455.73H455.73V0H0z"/>
</g>
    </symbol>

    <symbol id="sms" viewBox="0 0 56 56"> 

            <path d="M134.176,181.344c-12.24-4.288-16.112-6.736-16.112-11.424c0-5.088,4.288-8.16,11.824-8.16
			c8.56,0,17.12,3.264,21.616,5.712l5.504-21.408c-6.112-3.04-16.512-5.68-28.144-5.68c-24.656,0-40.56,14.064-40.56,32.608
			c-0.208,11.824,7.744,23.024,28.336,29.968c11.616,3.872,14.672,6.32,14.672,11.424c0,5.088-3.872,8.352-13.248,8.352
			c-9.168,0-20.992-4.08-26.704-7.552l-5.504,22.224c7.536,4.08,19.152,6.928,32.208,6.928c28.544,0,43.216-13.664,43.216-32.208
			C161.072,197.456,153.12,187.856,134.176,181.344z"/>

		<path d="M297.04,140.384c-7.344,0-13.456,1.632-18.976,4.896c-4.688,2.848-9.168,6.928-12.848,12.016h-0.4
			c-4.288-10.384-14.464-16.912-27.312-16.912c-17.12,0-25.888,9.376-30.176,15.68h-0.608l-1.424-13.456H179.2
			c0.4,8.768,0.816,19.376,0.816,31.792v67.904h0h30.176v-58.096c0-2.448,0.208-5.312,1.216-7.744
			c1.824-5.088,6.528-11.216,14.464-11.216c9.792,0,14.288,8.56,14.288,21.2v55.856h30.176V184c0-2.448,0.4-5.712,1.216-7.952
			c2.032-5.92,7.136-10.816,14.272-10.816c9.984,0,14.688,8.352,14.688,22.848v54.224h30.176v-58.72
			C330.688,153.84,316.208,140.384,297.04,140.384z"/>

		<path d="M397.92,181.344c-12.24-4.288-16.112-6.736-16.112-11.424c0-5.088,4.288-8.16,11.824-8.16
			c8.56,0,17.12,3.264,21.616,5.712l5.504-21.408c-6.128-3.056-16.512-5.696-28.144-5.696c-24.656,0-40.56,14.064-40.56,32.608
			c-0.208,11.824,7.744,23.024,28.336,29.968c11.616,3.872,14.672,6.32,14.672,11.424c0,5.104-3.872,8.368-13.248,8.368
			c-9.168,0-20.992-4.08-26.704-7.552l-5.504,22.224c7.536,4.08,19.152,6.928,32.208,6.928c28.544,0,43.216-13.664,43.216-32.208
			C424.816,197.456,416.864,187.856,397.92,181.344z"/>

		<path d="M459.168,0H53.008C23.824,0,0.08,24.16,0.08,53.856v273.008c0,29.712,23.744,53.872,52.928,53.872h188.128l160.192,131.44
			v-131.44h57.84c29.184,0,52.928-24.16,52.928-53.856V53.856C512.096,24.16,488.368,0,459.168,0z M480.08,326.864
			c0,12.048-9.392,21.856-20.928,21.856h-89.84v95.776L252.56,348.72H53.008c-11.536,0.016-20.928-9.792-20.928-21.84V53.856
			C32.08,41.808,41.472,32,53.008,32h406.16c11.52,0,20.912,9.824,20.912,21.856V326.864z"/>

    </symbol>

    <symbol id="email" viewBox="0 0 56 56">

	            <path id="XMLID_81_" d="M352.731,450.956c3.037,9.789-2.044,20.213-11.616,23.878c-35.811,13.709-69.294,18.498-112.873,18.498
				c-117.663,0-221.147-84.347-221.147-223.275C7.095,125.46,112.003,0,272.2,0c124.735,0,214.036,85.764,214.036,204.845
				c0,103.483-58.12,168.693-134.66,168.693c-33.327,0-57.419-17.007-60.955-54.582h-1.424c-21.963,36.15-53.86,54.582-91.43,54.582
				c-46.082,0-79.376-34.022-79.376-92.142c0-86.475,63.769-165.147,165.841-165.147c18.691,0,38.9,2.795,55.909,7.172
				c16.425,4.227,26.861,20.236,24.147,36.978l-16.972,104.695c-7.072,41.818-2.112,60.953,17.721,61.666
				c30.475,0.711,68.762-38.272,68.762-119.786c0-92.15-59.543-163.732-169.41-163.732c-108.444,0-203.428,85.051-203.428,220.436
				c0,118.369,75.834,185.708,181.448,185.708c27.489,0,56.203-4.51,80.853-13.214c5.863-2.07,12.315-1.662,17.872,1.126
				c5.558,2.788,9.753,7.716,11.595,13.655L352.731,450.956z M293.954,181.362c0.534-3.626-1.892-7.027-5.496-7.696
				c-4.413-0.819-9.536-1.426-15.573-1.426c-46.771,0-83.617,46.076-83.617,100.653c0,26.94,12.037,43.946,35.423,43.946
				c26.231,0,53.876-33.31,60.265-74.425L293.954,181.362z"/>

    </symbol>

    <symbol id="viber" viewBox="0 0 56 56"> 

            <rect x="0" y="0" style="fill:#7D3DAF;" width="455.731" height="455.731"/>

		<path style="fill:#FFFFFF;" d="M371.996,146.901l-0.09-0.36c-7.28-29.43-40.1-61.01-70.24-67.58l-0.34-0.07
			c-48.75-9.3-98.18-9.3-146.92,0l-0.35,0.07c-30.13,6.57-62.95,38.15-70.24,67.58l-0.08,0.36c-9,41.1-9,82.78,0,123.88l0.08,0.36
			c6.979,28.174,37.355,58.303,66.37,66.589v32.852c0,11.89,14.49,17.73,22.73,9.15l33.285-34.599
			c7.219,0.404,14.442,0.629,21.665,0.629c24.54,0,49.09-2.32,73.46-6.97l0.34-0.07c30.14-6.57,62.96-38.15,70.24-67.58l0.09-0.36
			C380.996,229.681,380.996,188.001,371.996,146.901z M345.656,264.821c-4.86,19.2-29.78,43.07-49.58,47.48
			c-25.921,4.929-52.047,7.036-78.147,6.313c-0.519-0.014-1.018,0.187-1.38,0.559c-3.704,3.802-24.303,24.948-24.303,24.948
			l-25.85,26.53c-1.89,1.97-5.21,0.63-5.21-2.09v-54.422c0-0.899-0.642-1.663-1.525-1.836c-0.005-0.001-0.01-0.002-0.015-0.003
			c-19.8-4.41-44.71-28.28-49.58-47.48c-8.1-37.15-8.1-74.81,0-111.96c4.87-19.2,29.78-43.07,49.58-47.48
			c45.27-8.61,91.17-8.61,136.43,0c19.81,4.41,44.72,28.28,49.58,47.48C353.765,190.011,353.765,227.671,345.656,264.821z"/>
		<path style="fill:#FFFFFF;" d="M270.937,289.942c-3.044-0.924-5.945-1.545-8.639-2.663
			c-27.916-11.582-53.608-26.524-73.959-49.429c-11.573-13.025-20.631-27.73-28.288-43.292c-3.631-7.38-6.691-15.049-9.81-22.668
			c-2.844-6.948,1.345-14.126,5.756-19.361c4.139-4.913,9.465-8.673,15.233-11.444c4.502-2.163,8.943-0.916,12.231,2.9
			c7.108,8.25,13.637,16.922,18.924,26.485c3.251,5.882,2.359,13.072-3.533,17.075c-1.432,0.973-2.737,2.115-4.071,3.214
			c-1.17,0.963-2.271,1.936-3.073,3.24c-1.466,2.386-1.536,5.2-0.592,7.794c7.266,19.968,19.513,35.495,39.611,43.858
			c3.216,1.338,6.446,2.896,10.151,2.464c6.205-0.725,8.214-7.531,12.562-11.087c4.25-3.475,9.681-3.521,14.259-0.624
			c4.579,2.898,9.018,6.009,13.43,9.153c4.331,3.086,8.643,6.105,12.638,9.623c3.841,3.383,5.164,7.821,3.001,12.412
			c-3.96,8.408-9.722,15.403-18.034,19.868C276.387,288.719,273.584,289.127,270.937,289.942
			C267.893,289.017,273.584,289.127,270.937,289.942z"/>
		<path style="fill:#FFFFFF;" d="M227.942,131.471c36.515,1.023,66.506,25.256,72.933,61.356c1.095,6.151,1.485,12.44,1.972,18.683
			c0.205,2.626-1.282,5.121-4.116,5.155c-2.927,0.035-4.244-2.414-4.434-5.039c-0.376-5.196-0.637-10.415-1.353-15.568
			c-3.78-27.201-25.47-49.705-52.545-54.534c-4.074-0.727-8.244-0.918-12.371-1.351c-2.609-0.274-6.026-0.432-6.604-3.675
			c-0.485-2.719,1.81-4.884,4.399-5.023C226.527,131.436,227.235,131.468,227.942,131.471
			C264.457,132.494,227.235,131.468,227.942,131.471z"/>
		<path style="fill:#FFFFFF;" d="M283.434,203.407c-0.06,0.456-0.092,1.528-0.359,2.538c-0.969,3.666-6.527,4.125-7.807,0.425
			c-0.379-1.098-0.436-2.347-0.438-3.529c-0.013-7.734-1.694-15.46-5.594-22.189c-4.009-6.916-10.134-12.73-17.318-16.248
			c-4.344-2.127-9.042-3.449-13.803-4.237c-2.081-0.344-4.184-0.553-6.275-0.844c-2.534-0.352-3.887-1.967-3.767-4.464
			c0.112-2.34,1.822-4.023,4.372-3.879c8.38,0.476,16.474,2.287,23.924,6.232c15.15,8.023,23.804,20.687,26.33,37.597
			c0.114,0.766,0.298,1.525,0.356,2.294C283.198,199.002,283.288,200.903,283.434,203.407
			C283.374,203.863,283.288,200.903,283.434,203.407z"/>
		<path style="fill:#FFFFFF;" d="M260.722,202.523c-3.055,0.055-4.69-1.636-5.005-4.437c-0.219-1.953-0.392-3.932-0.858-5.832
			c-0.918-3.742-2.907-7.21-6.055-9.503c-1.486-1.083-3.17-1.872-4.934-2.381c-2.241-0.647-4.568-0.469-6.804-1.017
			c-2.428-0.595-3.771-2.561-3.389-4.839c0.347-2.073,2.364-3.691,4.629-3.527c14.157,1.022,24.275,8.341,25.719,25.007
			c0.102,1.176,0.222,2.419-0.039,3.544C263.539,201.464,262.113,202.429,260.722,202.523
			C257.667,202.578,262.113,202.429,260.722,202.523z"/>

    </symbol>

    <symbol id="whatsapp" viewBox="0 0 56 56"> 

           <path fill="#25d366" stroke="#fff" stroke-width="26" d="M123 393l14-65a138 138 0 1150 47z"/><path fill="#fff" d="M308 273c-3-2-6-3-9 1l-12 16c-3 2-5 3-9 1-15-8-36-17-54-47-1-4 1-6 3-8l9-14c2-2 1-4 0-6l-12-29c-3-8-6-7-9-7h-8c-2 0-6 1-10 5-22 22-13 53 3 73 3 4 23 40 66 59 32 14 39 12 48 10 11-1 22-10 27-19 1-3 6-16 2-18"/>

    </symbol>
</defs>
    </svg>